<svg width="1920" height="985" viewBox="0 0 1920 985" fill="none" xmlns="http://www.w3.org/2000/svg">
<path fill-rule="evenodd" clip-rule="evenodd" d="M608.747 79.2072C542.601 83.3259 472.924 83.9356 419.903 129.211C367.248 174.173 351.017 251.444 325.875 320.753C298.234 396.95 249.736 472.112 266.406 552.349C283.421 634.251 346.581 695.155 411.837 734.518C471.657 770.601 541.23 764.163 608.747 758.849C671.556 753.905 741.223 754.464 786.844 704.999C830.953 657.173 820.366 576.877 837.875 510.412C854.824 446.079 891.765 389.22 887.688 322.208C882.847 242.621 868.8 153.16 813.197 104.721C757.356 56.0755 678.919 74.8377 608.747 79.2072Z" fill="#FEF8F5"/>
<path fill-rule="evenodd" clip-rule="evenodd" d="M875.33 905.224C875.782 971.497 872.535 1041.1 914.806 1096.55C956.786 1151.61 1033.04 1172.09 1100.85 1201.03C1175.4 1232.85 1247.76 1285.43 1328.8 1273.23C1411.52 1260.77 1475.83 1201.08 1518.74 1138.1C1558.08 1080.37 1555.5 1010.54 1553.93 942.837C1552.47 879.851 1556.88 810.321 1510.02 762.033C1464.71 715.345 1383.95 721.472 1318.55 700.31C1255.26 679.828 1200.53 639.797 1133.4 640.158C1053.66 640.588 963.562 649.662 912.12 702.499C860.459 755.562 874.851 834.918 875.33 905.224Z" fill="#FDECE0"/>
<path fill-rule="evenodd" clip-rule="evenodd" d="M973.459 774.354C1018.34 774.389 1065.41 777.286 1103.69 745.133C1141.7 713.202 1156.89 654.742 1177.66 602.817C1200.5 545.731 1237.36 490.445 1230.51 428.123C1223.51 364.507 1184.21 314.763 1142.32 281.433C1103.91 250.88 1056.59 252.457 1010.72 253.273C968.049 254.031 921.048 250.239 887.538 285.961C855.139 320.5 857.883 382.575 842.419 432.688C827.45 481.194 799.394 523.005 798.472 574.579C797.377 635.833 801.955 705.1 836.836 744.922C871.866 784.915 925.847 774.316 973.459 774.354Z" fill="#FEF3EE"/>
<path fill-rule="evenodd" clip-rule="evenodd" d="M88.4234 990.834C145.801 988.079 205.8 991.354 256.766 919.604C307.38 848.348 284.045 755.738 313.881 642.455C211.5 512.5 287 448.5 341.5 279C371 133.5 516.5 88 335.418 -82.7697C288.244 -146.231 227.644 -139.844 168.946 -135.191C114.34 -130.863 54.4879 -136.075 9.39027 -56.9271C-34.2125 19.5973 -34.6204 153.284 -57.5545 262.325C-79.7532 367.869 -118.261 459.801 -122.695 571.076C-127.96 703.234 -126.478 852.316 -84.3945 935.988C-42.1314 1020.02 27.5528 993.758 88.4234 990.834Z" fill="#F4F4F4"/>
<path fill-rule="evenodd" clip-rule="evenodd" d="M1749.72 989.695C1812.6 990.176 1878.57 994.299 1931.87 953.975C1984.81 913.929 2005.53 840.083 2034.12 774.564C2065.56 702.532 2116.66 632.915 2106.46 553.967C2096.04 473.38 2040.5 410.036 1981.49 367.444C1927.39 328.4 2024.75 327.914 1960.5 328.5C1943.5 258.5 1910.5 391.5 1866.5 462C1776 667.5 1784.5 655.5 1735.5 703C1692 741.5 1618.5 763 1506 759.5C1557.55 811.5 1553 885.885 1553 946.5C1602.46 997.459 1683.03 989.185 1749.72 989.695Z" fill="#FEF3EE"/>
<path fill-rule="evenodd" clip-rule="evenodd" d="M1506.5 759.5C1578.38 760.055 1669.65 755.444 1730.59 709.4C1791.11 663.674 1812.54 582.11 1849.05 504.075C1888.04 413.039 1941.83 342.776 1930.16 252.618C1918.23 160.59 1854.73 88.2474 1787.26 39.6023C1725.4 -4.99021 1594.96 -34.6635 1521.5 -34.0001C1453.16 -33.383 1432.51 -7.97053 1379.24 43.2867C1327.74 92.8448 1332.83 182.598 1308.63 254.858C1285.2 324.801 1240.73 384.919 1239.83 459.454C1238.77 547.978 1239.74 611.233 1296.05 669.183C1318.13 733.153 1441.1 698.578 1506.5 759.5Z" fill="#F6E9E3"/>
<path fill-rule="evenodd" clip-rule="evenodd" d="M543.806 978.038C629.673 981.966 719.981 988.097 790.413 968.813C860.36 949.662 840.773 957.712 876 923C914.729 884.838 913.466 790.224 876 760C816.5 712 822.5 691 807.5 676.5C727.248 598.923 652.688 630.502 565 627.086C483.425 623.908 397.956 604.877 336.951 627.086C277.969 648.559 288.618 692.454 263.39 726.353C238.97 759.165 188.931 786.13 191.652 822.321C194.883 865.305 209.666 914.418 279.863 945.458C350.36 976.631 452.713 973.872 543.806 978.038Z" fill="#F9F1ED"/>
<path fill-rule="evenodd" clip-rule="evenodd" d="M703.5 84C789.367 87.9279 881.296 219.55 951.729 200.266C1021.68 181.115 1002.09 189.165 1037.32 154.453C1076.04 116.291 1074.78 21.6775 1037.32 -8.54697C977.815 -56.547 983.815 -77.5469 968.815 -92.0468C888.563 -169.623 814.003 -138.045 726.315 -141.461C644.74 -144.639 559.271 -163.67 498.266 -141.461C439.284 -119.988 449.934 -76.0931 424.705 -42.194C400.285 -9.38199 350.246 17.5831 352.967 53.7745C356.198 96.7583 343.819 186.593 408 144.5C485 94.0001 612.406 79.8331 703.5 84Z" fill="#F6E9E3"/>
<path fill-rule="evenodd" clip-rule="evenodd" d="M1110.55 -75.4373C1192.3 -78.0202 1278.21 -83.6804 1346.11 -52.6616C1413.54 -21.8568 1394.56 -34.4393 1429.45 17.9829C1467.82 75.6157 1470.14 214.877 1435.53 257.983C1380.57 326.44 1387.07 357.584 1373.31 378.374C1299.65 489.606 1227.36 440.332 1143.84 442.093C1066.15 443.731 985.341 468.567 926.326 433.592C869.267 399.777 877.788 335.544 852.461 284.69C827.946 235.468 779.212 193.9 780.458 140.713C781.938 77.5447 794.208 5.78185 860.007 -37.3046C926.086 -80.5752 1023.82 -72.6973 1110.55 -75.4373Z" fill="#FFFDFC"/>
</svg>
