<svg width="329" height="276" viewBox="0 0 329 276" fill="none" xmlns="http://www.w3.org/2000/svg">
<path d="M125 249C130.327 249 135.237 247.504 138.869 244.982C142.493 242.464 145 238.791 145 234.5C145 230.209 142.493 226.536 138.869 224.018C135.237 221.496 130.327 220 125 220C119.673 220 114.763 221.496 111.131 224.018C107.507 226.536 105 230.209 105 234.5C105 238.791 107.507 242.464 111.131 244.982C114.763 247.504 119.673 249 125 249Z" fill="#FEF3EE" stroke="#4A121A" stroke-width="4"/>
<path d="M97.9998 274.5C100.765 274.5 103.331 273.693 105.242 272.312C107.151 270.933 108.5 268.898 108.5 266.5C108.5 264.102 107.151 262.067 105.242 260.688C103.331 259.308 100.765 258.5 97.9998 258.5C95.2342 258.5 92.6689 259.308 90.7576 260.688C88.8482 262.067 87.4998 264.102 87.4998 266.5C87.4998 268.898 88.8482 270.933 90.7576 272.312C92.6689 273.693 95.2342 274.5 97.9998 274.5Z" fill="#FEF3EE" stroke="#4A121A" stroke-width="3"/>
<path d="M76.4997 54.5C-9.00027 33.9999 -25.5002 159 59.4997 166C91.4997 220 136.5 198.167 155 180.5C200 232 247.333 189.833 256 163.5C276.666 168.833 319.4 167.3 325 118.5C330.6 69.7001 292.333 53.1667 272.5 51C261 -9.00002 195.5 -3.99992 175.5 20C121 -21 80.4998 22.9999 76.4997 54.5Z" fill="#FEF3EE" stroke="#48111E" stroke-width="5"/>
<path d="M105.296 78.7878V52.3748H110.896V78.7878H105.296ZM132.016 67.8035L134.419 64.7322L140.073 58.5896H146.288L138.267 67.3518L146.776 78.7878H140.417L134.599 70.6038L132.233 72.5007V78.7878H126.722V50.6765H132.233V63.2146L131.944 67.8035H132.016ZM168.311 78.7878H162.801V66.9905C162.801 65.5331 162.542 64.4431 162.024 63.7205C161.506 62.9858 160.681 62.6184 159.549 62.6184C158.007 62.6184 156.893 63.1363 156.207 64.1721C155.52 65.1959 155.177 66.9001 155.177 69.2849V78.7878H149.667V58.5896H153.876L154.617 61.1731H154.924C155.538 60.1975 156.381 59.4628 157.453 58.969C158.537 58.4631 159.766 58.2102 161.139 58.2102C163.487 58.2102 165.27 58.8486 166.487 60.1252C167.703 61.3899 168.311 63.2206 168.311 65.6174V78.7878ZM178.374 68.6526C178.374 70.6519 178.699 72.1635 179.35 73.1873C180.012 74.211 181.084 74.7229 182.566 74.7229C184.035 74.7229 185.089 74.217 185.727 73.2053C186.378 72.1816 186.703 70.664 186.703 68.6526C186.703 66.6532 186.378 65.1537 185.727 64.1541C185.077 63.1544 184.011 62.6545 182.529 62.6545C181.06 62.6545 180 63.1544 179.35 64.1541C178.699 65.1417 178.374 66.6412 178.374 68.6526ZM192.34 68.6526C192.34 71.9407 191.472 74.5121 189.738 76.3669C188.004 78.2218 185.589 79.1492 182.493 79.1492C180.554 79.1492 178.844 78.7276 177.362 77.8845C175.881 77.0294 174.743 75.8069 173.948 74.217C173.153 72.6272 172.756 70.7724 172.756 68.6526C172.756 65.3525 173.617 62.787 175.339 60.9563C177.061 59.1256 179.482 58.2102 182.602 58.2102C184.541 58.2102 186.251 58.6318 187.733 59.4749C189.214 60.318 190.352 61.5284 191.147 63.1062C191.942 64.684 192.34 66.5328 192.34 68.6526ZM213.495 78.7878L211.942 71.7239L209.846 62.7991H209.719L206.034 78.7878H200.108L194.363 58.5896H199.855L202.186 67.5325C202.559 69.1344 202.938 71.3445 203.324 74.1628H203.432C203.48 73.2475 203.691 71.7961 204.065 69.8088L204.354 68.2732L206.847 58.5896H212.917L215.284 68.2732C215.332 68.5382 215.404 68.9296 215.501 69.4475C215.609 69.9654 215.711 70.5194 215.808 71.1096C215.904 71.6877 215.988 72.2598 216.061 72.8259C216.145 73.38 216.193 73.8256 216.205 74.1628H216.314C216.422 73.2957 216.615 72.1093 216.892 70.6038C217.169 69.0862 217.368 68.0624 217.488 67.5325L219.909 58.5896H225.311L219.493 78.7878H213.495Z" fill="#4A1216"/>
<path d="M145.624 152.697H140.453L137.552 141.447C137.445 141.047 137.259 140.221 136.996 138.971C136.742 137.712 136.595 136.867 136.556 136.437C136.498 136.965 136.351 137.814 136.117 138.986C135.883 140.148 135.702 140.978 135.575 141.476L132.689 152.697H127.533L122.069 131.281H126.537L129.276 142.97C129.755 145.129 130.101 146.999 130.316 148.581C130.375 148.024 130.507 147.165 130.712 146.003C130.926 144.831 131.127 143.923 131.312 143.278L134.432 131.281H138.724L141.844 143.278C141.981 143.815 142.152 144.635 142.357 145.739C142.562 146.843 142.718 147.79 142.826 148.581C142.924 147.819 143.08 146.872 143.295 145.739C143.509 144.596 143.705 143.674 143.881 142.97L146.605 131.281H151.073L145.624 152.697ZM156.976 144.479C156.976 146.1 157.24 147.326 157.767 148.156C158.304 148.986 159.174 149.401 160.375 149.401C161.566 149.401 162.421 148.991 162.938 148.171C163.466 147.341 163.729 146.11 163.729 144.479C163.729 142.858 163.466 141.642 162.938 140.832C162.411 140.021 161.547 139.616 160.345 139.616C159.154 139.616 158.295 140.021 157.767 140.832C157.24 141.633 156.976 142.848 156.976 144.479ZM168.3 144.479C168.3 147.145 167.596 149.23 166.19 150.734C164.784 152.238 162.826 152.99 160.316 152.99C158.744 152.99 157.357 152.648 156.156 151.965C154.955 151.271 154.032 150.28 153.387 148.991C152.743 147.702 152.421 146.198 152.421 144.479C152.421 141.803 153.119 139.723 154.515 138.239C155.912 136.755 157.875 136.012 160.404 136.012C161.976 136.012 163.363 136.354 164.564 137.038C165.765 137.721 166.688 138.703 167.333 139.982C167.977 141.261 168.3 142.76 168.3 144.479ZM175.55 144.479C175.55 146.1 175.814 147.326 176.341 148.156C176.879 148.986 177.748 149.401 178.949 149.401C180.14 149.401 180.995 148.991 181.512 148.171C182.04 147.341 182.303 146.11 182.303 144.479C182.303 142.858 182.04 141.642 181.512 140.832C180.985 140.021 180.121 139.616 178.92 139.616C177.728 139.616 176.869 140.021 176.341 140.832C175.814 141.633 175.55 142.848 175.55 144.479ZM186.874 144.479C186.874 147.145 186.171 149.23 184.764 150.734C183.358 152.238 181.4 152.99 178.89 152.99C177.318 152.99 175.931 152.648 174.73 151.965C173.529 151.271 172.606 150.28 171.962 148.991C171.317 147.702 170.995 146.198 170.995 144.479C170.995 141.803 171.693 139.723 173.09 138.239C174.486 136.755 176.449 136.012 178.978 136.012C180.55 136.012 181.937 136.354 183.138 137.038C184.34 137.721 185.262 138.703 185.907 139.982C186.551 141.261 186.874 142.76 186.874 144.479ZM199.618 139.675H195.751V152.697H191.283V139.675H188.822V137.521L191.283 136.32V135.119C191.283 133.254 191.742 131.891 192.66 131.032C193.578 130.173 195.048 129.743 197.069 129.743C198.612 129.743 199.984 129.972 201.185 130.431L200.043 133.713C199.144 133.429 198.314 133.288 197.552 133.288C196.918 133.288 196.459 133.478 196.175 133.859C195.892 134.23 195.751 134.709 195.751 135.295V136.32H199.618V139.675ZM205.946 145.593H202.372L201.625 131.281H206.693L205.946 145.593ZM201.566 150.602C201.566 149.782 201.786 149.162 202.225 148.742C202.665 148.322 203.304 148.112 204.144 148.112C204.955 148.112 205.58 148.327 206.019 148.757C206.468 149.186 206.693 149.802 206.693 150.602C206.693 151.374 206.468 151.984 206.019 152.433C205.57 152.873 204.945 153.093 204.144 153.093C203.324 153.093 202.689 152.878 202.24 152.448C201.791 152.009 201.566 151.393 201.566 150.602Z" fill="#4A1216"/>
<circle cx="150.071" cy="106.455" r="5.06061" fill="#4A1216"/>
<circle cx="165.253" cy="106.455" r="5.06061" fill="#4A1216"/>
<circle cx="180.434" cy="106.455" r="5.06061" fill="#4A1216"/>
</svg>
