<svg width="47" height="48" viewBox="0 0 47 48" fill="none" xmlns="http://www.w3.org/2000/svg">
<path d="M1.4668 12.9205C2.32251 11.0339 3.88284 7.44328 4.95076 7.44332C5.86463 7.44336 9.55862 5.66342 13.9357 9.26901C13.9428 9.27485 13.8937 9.31732 13.8445 9.35993C13.8444 9.35997 13.8443 9.36004 13.8442 9.36008L13.7524 9.45162L12.2854 10.9122C9.1682 9.08651 7.70127 9.81677 7.5179 9.81677C6.40072 9.81677 2.93373 12.0076 1.4668 12.9205Z" fill="#7A5D64"/>
<path d="M4.40093 11.6425C4.02095 13.1558 6.60133 13.2856 6.60133 14.0159C6.60133 14.7463 7.15146 18.2152 8.6184 18.5804C9.79194 18.8725 8.6184 20.6493 7.88493 21.5015C7.02919 21.3796 5.09776 21.0999 4.95106 18.7629C4.76825 15.8509 1.69363 13.0576 1.28742 13.2835C1.28502 13.2849 1.28369 13.2857 1.28369 13.2857C1.55249 12.6055 4.76766 10.1819 4.40093 11.6425Z" fill="#DD8B60"/>
<path d="M6.05121 14.9289C6.05121 16.3968 7.33478 18.2152 8.61835 18.5804C9.04622 16.8762 10.4153 13.103 11.7356 11.6424C9.24179 9.74367 5.50111 10.9122 4.03418 12.3728C4.70651 12.677 6.05121 13.4682 6.05121 14.9289Z" fill="#9F5A59"/>
<path d="M8.61516 30.9271C9.36414 33.8249 14.045 34.6647 14.045 34.6647C15.3556 39.5829 17.5468 43.7824 23.8379 38.4316C31.5782 31.848 39.3628 35.3808 39.427 35.6813C39.632 35.2731 45.4671 25.8877 46.4363 26.2058C46.4363 26.2058 47.9711 36.4167 42.5413 42.2656C39.171 45.5442 28.9846 50.5438 15.9531 44.0913C13.1446 41.0095 7.30453 34.2715 8.61516 30.9271Z" fill="#CFC4C2"/>
<path d="M45.1085 28.39C50.9762 47.7427 35.2067 27.2946 23.2878 38.7967C14.6696 40.4398 7.70166 35.1868 7.70166 25.1037C7.70166 15.0206 15.9113 6.84644 26.0383 6.84644C36.1654 6.84644 47.3089 15.7925 45.1085 28.39Z" fill="#F9E5DB"/>
<path d="M14.6693 31.1779C10.1218 31.9082 8.7404 27.1003 8.61816 24.6053C9.16826 12.0077 17.2364 6.89564 20.9037 7.62593C23.8376 8.21016 23.4709 9.9385 22.9208 10.7297C21.4538 12.5554 19.0701 14.7464 18.8867 16.9372C18.8178 17.7606 19.9869 19.1281 20.9037 19.8584C17.4198 24.4227 19.4368 26.431 18.1532 28.8045C17.1264 30.7032 15.4027 31.1779 14.6693 31.1779Z" fill="#DD8B60"/>
<path d="M40.3407 22C42.8345 22.2921 44.1914 20.9655 44.7415 20.1742C42.3944 10.2423 33.8006 6.17703 30.2555 5.3859C28.2385 5.32503 24.8279 5.6541 25.1213 7.26074C25.488 9.26904 29.8888 10.547 30.8056 11.2773C31.5391 11.8616 31.967 15.0012 32.0892 16.3402C40.7074 19.444 37.2234 21.6348 40.3407 22Z" fill="#DD8B60"/>
<path d="M39.4802 17.2927C39.8887 16.17 39.448 14.9814 38.4959 14.638C37.5437 14.2945 36.4407 14.9262 36.0322 16.0489C35.6237 17.1715 36.0643 18.3601 37.0165 18.7036C37.9686 19.0471 39.0717 18.4154 39.4802 17.2927Z" fill="#BB664A"/>
<path d="M36.1233 18.3979C37.3385 18.3979 38.3237 17.417 38.3237 16.207C38.3237 14.997 37.3385 14.0161 36.1233 14.0161C34.908 14.0161 33.9229 14.997 33.9229 16.207C33.9229 17.417 34.908 18.3979 36.1233 18.3979Z" fill="#3D1033"/>
<path d="M30.8057 4.52217L33.3728 5.435C34.2285 4.94815 35.9399 4.04744 37.4069 4.33956C38.8738 4.63171 42.9079 7.44333 44.7415 7.99105C43.2746 2.87901 39.974 2.14869 36.8568 1.60097C34.363 1.16279 31.6614 3.48757 30.8057 4.52217Z" fill="#7A5D64"/>
<path d="M38.1405 8.72137L34.4731 5.80021C36.3015 4.7686 40.9739 3.87016 44.3456 7.77452C44.3463 7.77503 44.3467 7.77558 44.3471 7.77612C44.4311 7.89841 40.2507 8.45646 38.1405 8.72137Z" fill="#9F5A59"/>
<path d="M37.957 8.7214L40.1574 11.0948C40.402 10.1211 41.551 8.28322 43.458 7.99107C41.6977 7.26078 38.996 8.11281 37.957 8.7214Z" fill="#DD8B60"/>
<path d="M15.2873 24.8138C16.4388 25.6373 17.8512 25.6411 18.442 24.8221C19.0328 24.0032 18.5783 22.6717 17.4268 21.8481C16.2753 21.0246 14.8628 21.0208 14.272 21.8398C13.6812 22.6587 14.1358 23.9902 15.2873 24.8138Z" fill="#BB664A"/>
<path d="M17.7863 23.875C19.0016 23.875 19.9867 22.8941 19.9867 21.6842C19.9867 20.4742 19.0016 19.4933 17.7863 19.4933C16.5711 19.4933 15.5859 20.4742 15.5859 21.6842C15.5859 22.8941 16.5711 23.875 17.7863 23.875Z" fill="#3D1033"/>
<path d="M15.9882 38.0963C15.9647 38.0774 15.9526 38.0664 15.9526 38.0664C15.9639 38.0755 15.9757 38.0854 15.9882 38.0963C16.4485 38.4735 21.274 42.1075 24.9376 31.8589C26.5932 27.2278 24.8765 26.0659 23.8374 24.9705C23.0428 23.7531 22.6272 20.8443 27.3214 18.9456C32.0156 17.0468 33.8003 19.3713 34.1059 20.7713C34.3504 21.5622 34.3674 22.9278 33.0057 24.0576C32.2723 27.8916 37.2232 31.3605 38.6901 32.6385L45.8414 37.2028C45.9027 37.8721 42.4675 37.641 41.4406 37.2028C40.4138 36.7647 39.6682 36.29 39.4236 36.1074C38.8122 37.9937 35.7562 43.5436 23.8374 38.6141C22.0262 46.5487 16.9949 38.9869 15.9882 38.0963Z" fill="#7A5D64"/>
<path d="M30.8058 30.2158L24.5713 34.415C29.1555 37.7013 37.2236 39.3444 39.2406 32.4067L30.8058 30.2158Z" fill="#AC2045"/>
<path d="M28.6054 36.971C28.267 36.0639 27.9379 34.6001 29.9682 34.798C30.3613 34.8363 30.6972 34.9309 30.9835 35.0645C31.3219 34.6457 33.2169 34.4022 34.0291 34.798C35.0443 35.2928 34.4731 35.1452 35.9401 36.6058L32.5063 37.5187L28.6054 36.971Z" fill="#F97D7D"/>
<path d="M32.5063 37.5187C32.5063 36.8538 32.1761 35.6207 30.9835 35.0645M32.5063 37.5187L28.6054 36.971C28.267 36.0639 27.9379 34.6001 29.9682 34.798C30.3613 34.8363 30.6972 34.9309 30.9835 35.0645M32.5063 37.5187L35.9401 36.6058C34.4731 35.1452 35.0443 35.2928 34.0291 34.798C33.2169 34.4022 31.3219 34.6457 30.9835 35.0645" stroke="#871130" stroke-width="0.5"/>
<path d="M16.3196 43.7754C13.019 41.8277 6.7845 34.9754 8.25144 23.1447C8.93437 17.6368 10.5075 13.9777 12.4689 11.5543M12.4689 11.5543C13.1613 10.6987 13.9021 9.99713 14.6693 9.42258M12.4689 11.5543L14.6693 9.42258M12.4689 11.5543C8.50815 9.00072 5.19533 10.6708 4.034 11.825M44.9248 29.4358C46.3917 25.5181 45.597 22.536 44.9248 19.6758C44.1913 16.5553 42.0573 14.3295 40.6274 12.3728M40.6274 12.3728C40.7103 8.74567 43.6493 8.06204 45.1082 8.1736C44.3747 3.97443 40.8907 1.96616 36.8566 1.41845C33.6294 0.980272 30.9726 3.57762 30.0477 4.93103M40.6274 12.3728C38.1395 8.96768 35.6816 6.93177 33.3727 5.8615M14.1192 34.4642C15.2177 38.2467 18.229 43.4698 22.9373 41.6831M22.9373 41.6831C24.5162 41.0843 22.0039 37.5186 23.4709 34.78L23.6542 34.4642M22.9373 41.6831C26.9047 44.2819 35.9765 47.0281 40.524 37.2247M30.9889 29.8506L30.2554 25.5181M30.9889 29.8506C30.9889 29.8506 29.482 31.7205 28.2384 32.5892C26.654 33.6959 23.6542 34.4642 23.6542 34.4642M30.9889 29.8506C30.9889 29.8506 33.4437 31.3853 35.2063 31.8589C37.0092 32.3431 39.9739 32.224 39.9739 32.224M23.6542 34.4642C29.8887 37.2028 34.2895 40.4398 39.9739 32.224M39.9739 32.224C41.0741 32.9543 39.4238 36.4725 40.524 37.2247M40.524 37.2247C41.0866 37.4266 46.025 39.1618 46.3917 35.8755C46.9418 29.4854 39.4839 20.7665 36.4899 18.5804C34.4306 17.0767 30.2932 15.9824 26.4047 16.9066M18.3366 28.4393C18.52 26.1874 19.2168 21.2094 22.7374 18.5804C23.8433 17.7544 25.0996 17.2169 26.4047 16.9066M26.4047 16.9066L25.3045 13.6508M27.8717 22.597C27.9939 23.5098 27.8717 25.4086 26.4047 25.7007C24.9378 25.9928 24.021 24.7878 24.021 23.1447C24.021 21.4811 26.038 19.6758 28.2384 19.3107C29.2775 19.0061 31.5757 18.5804 32.4558 19.3107C33.556 20.2235 34.2895 21.6841 33.3727 23.1447C32.4558 24.0576 31.1723 23.2663 30.2554 22.0493M8.25144 22.0493C7.21233 22.0493 5.06085 21.5015 4.76747 19.3107C4.40073 16.5721 4.034 14.016 0.733398 13.6508C1.40574 11.5816 3.33721 7.3338 5.6843 6.89562C8.61817 6.34791 12.2855 7.02007 14.6693 9.42258M14.6693 9.42258C17.5633 7.25504 20.8315 6.89562 23.2875 6.89562C26.5881 6.89562 25.8546 5.25247 29.1552 4.88736C29.4483 4.88736 29.7459 4.90153 30.0477 4.93103M30.0477 4.93103C31.1093 5.03485 32.2226 5.32838 33.3727 5.8615M30.0477 4.93103L33.3727 5.8615M33.3727 5.8615C34.534 4.87703 38.3969 3.25571 41.6242 5.8615" stroke="#3D1033" stroke-linecap="round" stroke-linejoin="round"/>
</svg>
