<svg width="138" height="133" viewBox="0 0 138 133" fill="none" xmlns="http://www.w3.org/2000/svg">
<path d="M94.4619 76.7934L95.2415 88.9148C95.5958 93.9858 97.7771 98.765 101.384 102.345L122.463 123.284L107.478 128.931L34.2383 129.719L19.7729 128.379L28.5687 116.667C31.1673 113.205 32.3248 108.868 31.7815 104.569C30.8129 96.8959 27.6474 89.6246 27.6474 89.6246L94.4619 76.7934Z" fill="#F9E6D8"/>
<path d="M28.6947 90.642C28.9388 90.7603 28.9624 95.2319 30.7184 98.9858C32.2303 102.203 29.9231 104.009 32.3012 105.358C43.2545 111.573 63.1532 117.882 86.9025 104.057C86.9025 104.057 84.926 112.377 79.0595 114.782C74.3349 116.722 91.5563 117.945 103.88 104.814C104.959 103.662 102.124 104.861 100.596 101.509C100.013 100.232 98.0527 98.0631 97.3282 96.6751C96.3833 94.8612 96.6983 91.6987 95.7927 89.948C94.2021 86.8722 94.8635 82.2193 94.6588 80.4448C91.8712 56.2177 81.5242 65.7682 81.5242 65.7682L28.6947 90.642Z" fill="#CDC6C0"/>
<path d="M94.4619 76.7934L95.2415 88.9148C95.5958 93.9858 97.7771 98.765 101.384 102.345L122.463 123.284L107.478 128.931L34.2383 129.719L19.7729 128.379L28.5687 116.667C31.1673 113.205 32.3248 108.868 31.7815 104.569C30.8129 96.8959 27.6474 89.6246 27.6474 89.6246L94.4619 76.7934Z" stroke="#481019" stroke-width="3" stroke-miterlimit="10"/>
<path d="M37.3724 27.6924C37.3724 27.6924 24.0646 0.705048 1.78784 23.5521L4.97698 27.4243C6.64636 28.6151 7.67791 30.4054 7.88265 32.511C8.43386 38.142 10.7096 49.3328 20.088 48.765C32.6005 47.9921 37.3724 27.6924 37.3724 27.6924Z" fill="#DC8B5E"/>
<path d="M10.3315 21.1467C10.3315 21.1467 13.812 26.5331 14.4814 34.1199C15.1979 42.2508 22.0408 44.7981 22.0408 44.7981L31.3012 38.2287L28.7735 28.1735L16.0405 18.3312L10.3315 21.1467Z" fill="#9F5957"/>
<path d="M37.3016 27.6767L33.2383 22.5426L27.0569 17.2745L20.5841 15.1215L14.135 15.6104L9.85916 16.9275L6.07156 20.3581L2.07922 22.4558C2.07922 22.4558 6.99287 20.4448 13.5601 20.4842C19.8124 20.5237 25.4978 25.2161 30.2618 33.9464L37.3016 27.6767Z" fill="#7D5D6A"/>
<path d="M37.3723 27.6924C37.3723 27.6924 23.7968 3.02366 2.6225 22.4795C1.56733 23.4495 1.51221 24.948 2.50438 25.6577L4.98483 27.4243C6.65421 28.6151 7.68576 30.4054 7.89049 32.511C8.4417 38.142 10.7174 49.3328 20.0959 48.765C32.6004 47.9921 37.3723 27.6924 37.3723 27.6924Z" stroke="#481019" stroke-width="3" stroke-miterlimit="10" stroke-linecap="round" stroke-linejoin="round"/>
<path d="M10.8513 20.7208C24.3166 20.295 28.6948 33.4969 28.6948 33.4969" stroke="#481019" stroke-width="3" stroke-miterlimit="10" stroke-linecap="round"/>
<path d="M67.4606 21.47C67.4606 21.47 71.4687 -7.93849 100.147 6.01262L97.848 10.2397C96.6826 11.9274 96.3125 13.9621 96.8322 16.0047C98.2181 21.4937 99.856 32.795 90.8319 35.429C78.8155 38.9543 67.4606 21.47 67.4606 21.47Z" fill="#DC8B5E"/>
<path d="M90.698 6.15459C90.698 6.15459 89.2412 12.4006 91.1783 19.7745C93.2493 27.6688 87.6742 32.3849 87.6742 32.3849L76.7366 29.3328L75.7208 19.0174L84.3827 5.43692L90.698 6.15459Z" fill="#9F5957"/>
<path d="M67.5236 21.4385L69.6103 15.2319L73.642 8.1814L79.0045 3.96216L85.241 2.23503L89.7137 2.02209L94.4384 3.97004L98.9032 4.58519C98.9032 4.58519 93.6037 4.35648 87.438 6.612C81.5716 8.765 77.8076 15.1136 76.2642 24.9401L67.5236 21.4385Z" fill="#7D5D6A"/>
<path d="M67.4606 21.4701C67.4606 21.4701 71.9096 -6.3454 98.4071 4.79024C99.73 5.35018 100.289 6.7382 99.5883 7.73977L97.848 10.2477C96.6826 11.9354 96.3125 13.9701 96.8322 16.0126C98.2181 21.5016 99.856 32.8029 90.8319 35.4369C78.8155 38.9543 67.4606 21.4701 67.4606 21.4701Z" stroke="#481019" stroke-width="3" stroke-miterlimit="10" stroke-linecap="round" stroke-linejoin="round"/>
<path d="M27.6317 89.6246C24.7969 85.6814 20.8361 82.0694 18.5761 74.6483C17.8989 72.4401 18.8596 69.9795 18.4974 67.5426C18.0722 64.7271 16.387 61.8959 16.5524 58.8438C17.0012 50.4132 20.025 41.194 27.553 31.8407C30.8366 27.7555 35.3802 24.877 40.4592 23.5836C43.6326 22.7792 48.1131 23.3786 52.5149 22.6609C56.7277 21.9748 60.8303 19.948 65.4054 19.8375C68.5236 19.7587 71.6183 20.5079 74.3507 22.0221C80.6739 25.5237 91.8477 33.2366 93.4226 44.6562C93.7376 46.9432 94.8321 56.5726 95.2416 58.8438C96.8558 67.7555 97.4937 76.7855 87.7451 89.2697C84.9812 92.8107 83.2252 92.9684 80.1069 95.3107C70.13 102.803 54.893 104.183 36.4747 95.776C32.821 94.0883 29.9862 92.8975 27.6317 89.6246Z" fill="#F9E6D8"/>
<path d="M27.4428 31.8092C30.5611 27.9369 35.7503 24.7193 40.349 23.5521C40.349 23.5521 50.5779 27.0852 46.0737 32.3612C36.6323 43.4101 43.1365 55.1845 43.1365 55.1845L40.0734 68.6467C40.0734 68.6467 19.2691 79.317 17.3793 52.5662C18.9148 45.1609 22.4189 38.2839 27.4428 31.8092Z" fill="#DC8B5E"/>
<path d="M58.2476 21.2098C58.2476 21.2098 63.2714 32.3297 69.9253 35.153C76.5792 37.9764 66.122 48.836 66.122 48.836L73.4767 54.7271L79.1069 61.9354C79.1069 61.9354 90.8634 68.56 95.2574 59.6562L93.6274 52.6846L94.5565 46.3202L92.7218 38.1262L85.934 29.9164L77.6029 23.9464L70.76 20.5158L65.4133 19.8297L58.2476 21.2098Z" fill="#DC8B5E"/>
<path d="M31.1909 49.9243C31.1909 49.9243 22.9779 50.0268 26.167 56.2729C28.6475 61.1388 38.9393 60.9969 38.018 55.7603C37.0967 50.5237 31.1909 49.9243 31.1909 49.9243Z" fill="#BA6B4A"/>
<path d="M82.9339 42.2193C82.9339 42.2193 88.9106 41.7697 88.5405 45.8076C88.1704 49.8454 84.9734 53.2208 81.3748 53.1025C77.9966 52.9842 75.3587 50.153 76.4926 46.959C77.6344 43.7571 82.9339 42.2193 82.9339 42.2193Z" fill="#BA6B4A"/>
<path d="M83.8051 46.6093C84.5387 43.97 83.0107 41.2385 80.3921 40.5084C77.7735 39.7783 75.056 41.326 74.3223 43.9654C73.5886 46.6048 75.1167 49.3363 77.7353 50.0664C80.3539 50.7965 83.0714 49.2487 83.8051 46.6093Z" fill="#481019"/>
<path d="M38.9799 53.9385C39.7135 51.2991 38.1855 48.5676 35.5669 47.8375C32.9483 47.1074 30.2308 48.6552 29.4971 51.2946C28.7634 53.9339 30.2915 56.6654 32.9101 57.3955C35.5287 58.1256 38.2462 56.5779 38.9799 53.9385Z" fill="#481019"/>
<path d="M40.1678 67.8186C40.1678 67.8186 42.1915 44.9401 57.4522 42.6294C64.0746 41.6278 69.563 45.9259 74.4294 51.7776C76.2878 54.0095 77.7603 58.3944 80.3983 59.806C82.6503 61.0126 85.1308 62.795 87.0521 64.1672C89.2176 65.713 91.8241 64.0884 92.4698 66.8013C93.9423 72.9843 78.7131 78.0079 77.6028 75.6341C75.209 70.5079 66.8227 67.0852 61.1689 66.5726C55.6174 66.0678 56.523 77.5111 48.3651 80.1294C45.3807 81.0915 38.2307 79.7745 38.6402 77.2035C39.3331 72.8029 38.4591 72.9764 40.1678 67.8186Z" fill="#FDE9E0"/>
<path d="M66.8621 55.1215L67.5629 50.8549L66.2952 49.5063L62.9328 48.1262L57.8616 47.1483L52.9401 48.6073L50.003 51.7461L47.7981 54.877L49.1919 59.2934C51.507 69.9322 44.4909 74.7587 41.1836 77.5584C40.2072 78.3786 39.0811 79.0095 37.8685 79.4038L29.7893 82.0458L30.4744 83.8439C30.4193 84.3802 38.0732 85.6972 38.0732 85.6972L44.2783 84.4196L48.3178 83.7098C48.3178 83.7098 56.586 75.4685 65.2242 74.9007C70.8623 74.53 69.2953 76.2098 79.0517 76.2492L85.1544 75.366L90.7374 72.6451L92.8241 67.2902C69.626 74.1278 66.8621 55.1215 66.8621 55.1215Z" fill="#7A5C64"/>
<path d="M83.296 79.8928C82.3983 81.0126 79.343 81.5883 78.7997 82.3376C78.1146 83.276 74.9097 84.0805 74.2089 84.7429C73.2797 85.6262 69.6024 86.6199 68.059 86.959C67.1298 87.1641 61.5232 88.9464 60.8539 88.3628C60.4444 88 49.0816 88.6861 47.4988 88.2918C46.5933 88.0631 40.2544 87.7871 39.8134 87.2824C39.1362 86.4937 39.2622 85.7682 39.2622 85.7682L44.6404 84.3407L52.2078 80.4527L57.271 75.9259L60.9799 71.0915L64.421 73.7571L70.0197 75.1609L75.7208 76.2256L83.6818 75.5158L88.249 74.3959C88.2411 74.388 83.6582 79.4432 83.296 79.8928Z" fill="#AF2244"/>
<path d="M38.1992 71.8091C39.5221 70.2555 40.3726 68.3549 40.656 66.336C41.5301 60.0899 45.0027 43.6309 57.4522 42.6293C64.1848 42.0931 69.9095 45.8312 73.9413 51.123C76.2248 54.112 79.5085 59.8691 83.1228 62.1956C89.1783 66.0915 94.4463 64.7508 92.4619 69.4353C89.9106 75.4685 81.1542 76.0363 78.5399 76.123C75.7209 76.2177 74.2799 76.5962 69.2166 74.6088C66.807 73.6625 67.3346 74.4748 60.9799 71.0836C60.6965 70.9338 60.7831 70.4842 60.6335 70.989C59.2554 75.6183 53.4126 79.7587 52.6488 80.2949C48.8691 82.9606 45.7272 84.9953 39.7426 85.7445C37.8764 85.9811 30.1673 84.5773 29.8445 83.1893C29.0334 79.735 34.4431 76.2019 38.1992 71.8091Z" stroke="#481019" stroke-width="3" stroke-miterlimit="10"/>
<path d="M31.3013 84.2224C31.3013 84.2224 69.8151 101.139 92.454 69.4432" stroke="#481019" stroke-width="3" stroke-miterlimit="10" stroke-linecap="round" stroke-linejoin="round"/>
<path d="M56.2789 55.0347C56.2789 55.0347 56.1687 62.9132 50.0896 59.8849C48.2076 58.9464 47.2863 56.7776 47.9557 54.7744C48.3888 53.4968 49.3573 52.0063 51.3338 50.4685C54.6253 47.9211 58.9169 46.9905 62.925 48.1104C65.303 48.7808 67.4291 50.1057 67.3189 52.7082C67.0748 58.5442 61.4997 60.1214 59.9957 53.8044" stroke="#481019" stroke-width="3" stroke-miterlimit="10" stroke-linecap="round" stroke-linejoin="round"/>
<path d="M56.5624 42.3849L55.7513 35.3896" stroke="#481019" stroke-width="3" stroke-miterlimit="10" stroke-linecap="round"/>
<path d="M90.076 5.93378C77.2643 10.0978 77.595 23.2997 77.595 23.2997" stroke="#481019" stroke-width="3" stroke-miterlimit="10" stroke-linecap="round"/>
<path d="M60.4996 70.4921L59.5468 61.9905" stroke="#481019" stroke-width="3" stroke-miterlimit="10" stroke-linecap="round"/>
<path d="M53.1607 101.431L60.035 101.864L68.3977 100.492L74.2563 98.2524L80.107 95.3029L86.9813 89.9559L92.5486 82.9448C70.4687 100.855 32.6714 93.7098 32.6714 93.7098L47.2076 100.098L53.1607 101.431Z" fill="#CDC6C0"/>
<path d="M18.9147 75.7051C18.3399 73.9622 18.8202 73.2603 18.9226 70.1925C19.0328 67.0221 16.45 63.8439 16.5051 60.4054C16.6469 51.5568 19.5604 41.7697 27.5608 31.8328C30.8445 27.7477 35.388 24.8691 40.467 23.5757C43.6404 22.7713 48.0422 23.4101 52.4519 22.6925C56.6647 22.0063 60.8382 19.9401 65.4132 19.8297C68.5315 19.7508 71.6261 20.5 74.3586 22.0142C80.6817 25.5158 93.0367 32.8896 94.4305 44.3328C95.0368 49.3407 93.2099 50.4212 93.6194 52.6925C94.1706 55.713 95.9581 60.5316 95.7849 65.3029C95.4463 74.6089 94.1549 84.4038 86.0521 90.7366C71.2088 102.345 56.6332 107.022 33.3958 94.1278C27.1514 90.6656 21.1904 82.6451 18.9147 75.7051Z" stroke="#481019" stroke-width="3" stroke-miterlimit="10"/>
<path d="M68.8701 76.3202C66.8621 75.1293 61.4366 77.3849 61.4366 77.3849C65.2557 79.3959 65.6337 81.4385 64.9722 83.0237C64.9093 82.7003 64.8384 82.3612 64.8305 82.0063C64.8148 80.9259 63.8777 79.6009 63.2084 78.9542C62.9328 78.694 62.6257 78.4811 62.3028 78.2918C60.9878 77.5031 60.1373 77.8975 58.5861 78.3628C57.2632 78.765 56.0269 79.6798 55.5229 80.5315C55.1449 81.1782 54.9953 81.9432 55.1056 82.6845C55.5859 85.9811 57.6648 86.4937 59.972 86.6672C60.1925 86.683 62.5154 87.1719 64.421 87.1562C65.0667 87.1483 65.7124 87.0379 66.3267 86.8328C67.8149 86.3281 71.1537 85.4448 71.5553 83.4653C72.2561 80.0189 70.8702 77.511 68.8701 76.3202Z" fill="#EE6F78"/>
<path d="M7.22122 127.574C6.15818 124.798 6.04006 119.948 15.1035 116.06C17.6391 114.972 20.466 114.782 23.1197 115.539C27.1672 116.699 32.7501 119.648 34.9628 127.188C35.3802 128.599 34.4667 130.058 33.0179 130.311C28.5846 131.099 19.0801 132.314 10.308 130.271C8.89848 129.94 7.74094 128.931 7.22122 127.574Z" fill="#F9E6D8"/>
<path d="M105.321 126.099C105.565 121.951 107.289 113.41 117.235 111.391C119.062 111.021 120.944 111.044 122.763 111.438C127.818 112.543 138.795 115.965 135.653 124.585C135.149 125.965 134 127.014 132.582 127.385C128.117 128.552 116.975 130.973 107.478 128.931C106.156 128.647 105.242 127.448 105.321 126.099Z" fill="#F9E6D8"/>
<path d="M7.44177 128.047C8.03235 129.159 9.07178 129.98 10.3159 130.271C19.0881 132.314 28.5925 131.099 33.0258 130.311C34.4432 130.058 35.3487 128.655 34.9944 127.267C21.1511 114.073 11.505 122.692 7.44177 128.047Z" fill="#CDC6C0"/>
<path d="M135.653 124.585C136.196 123.103 136.315 121.778 136.126 120.587C121.44 111.407 110.731 118.521 105.612 123.639C105.455 124.546 105.368 125.39 105.329 126.099C105.25 127.448 106.163 128.655 107.486 128.938C116.983 130.981 128.125 128.56 132.59 127.393C134 127.014 135.149 125.973 135.653 124.585Z" fill="#CDC6C0"/>
<path d="M105.321 126.099C105.565 121.951 107.289 113.41 117.235 111.391C119.062 111.021 120.944 111.044 122.763 111.438C127.818 112.543 138.795 115.965 135.653 124.585C135.149 125.965 134 127.014 132.582 127.385C128.117 128.552 116.975 130.973 107.478 128.931C106.156 128.647 105.242 127.448 105.321 126.099Z" stroke="#481019" stroke-width="3" stroke-miterlimit="10" stroke-linecap="round" stroke-linejoin="round"/>
<path d="M7.22122 127.574C6.15818 124.798 6.04006 119.948 15.1035 116.06C17.6391 114.972 20.466 114.782 23.1197 115.539C27.1672 116.699 32.7501 119.648 34.9628 127.188C35.3802 128.599 34.4667 130.058 33.0179 130.311C28.5846 131.099 19.0801 132.314 10.308 130.271C8.89848 129.94 7.74094 128.931 7.22122 127.574Z" stroke="#481019" stroke-width="3" stroke-miterlimit="10" stroke-linecap="round" stroke-linejoin="round"/>
</svg>
