<svg width="35" height="35" viewBox="0 0 35 35" fill="none" xmlns="http://www.w3.org/2000/svg">
<path fill-rule="evenodd" clip-rule="evenodd" d="M17.4999 0C7.83119 0 -6.10352e-05 7.83125 -6.10352e-05 17.5C-6.10352e-05 25.2437 5.00931 31.7844 11.9656 34.1031C12.8406 34.2562 13.1687 33.7312 13.1687 33.2719C13.1687 32.8562 13.1468 31.4781 13.1468 30.0125C8.74994 30.8219 7.61244 28.9406 7.26244 27.9562C7.06556 27.4531 6.21244 25.9 5.46869 25.4844C4.85619 25.1562 3.98119 24.3469 5.44681 24.325C6.82494 24.3031 7.80931 25.5937 8.13744 26.1187C9.71244 28.7656 12.2281 28.0219 13.2343 27.5625C13.3874 26.425 13.8468 25.6594 14.3499 25.2219C10.4562 24.7844 6.38744 23.275 6.38744 16.5812C6.38744 14.6781 7.06556 13.1031 8.18119 11.8781C8.00619 11.4406 7.39369 9.64687 8.35619 7.24062C8.35619 7.24062 9.82181 6.78125 13.1687 9.03437C14.5687 8.64062 16.0562 8.44375 17.5437 8.44375C19.0312 8.44375 20.5187 8.64062 21.9187 9.03437C25.2656 6.75937 26.7312 7.24062 26.7312 7.24062C27.6937 9.64687 27.0812 11.4406 26.9062 11.8781C28.0218 13.1031 28.6999 14.6562 28.6999 16.5812C28.6999 23.2969 24.6093 24.7844 20.7156 25.2219C21.3499 25.7687 21.8968 26.8187 21.8968 28.4594C21.8968 30.8 21.8749 32.6812 21.8749 33.2719C21.8749 33.7312 22.2031 34.2781 23.0781 34.1031C26.5521 32.9302 29.5708 30.6974 31.7094 27.7191C33.8481 24.7407 34.9989 21.1667 34.9999 17.5C34.9999 7.83125 27.1687 0 17.4999 0Z" fill="#3D1033"/>
</svg>
