<svg width="24" height="22" viewBox="0 0 24 22" fill="none" xmlns="http://www.w3.org/2000/svg">
<ellipse cx="4.40316" cy="9.6769" rx="2.42099" ry="3.82201" transform="rotate(-18.0906 4.40316 9.6769)" fill="white"/>
<ellipse rx="2.42099" ry="3.82201" transform="matrix(-0.950567 -0.310521 -0.310521 0.950567 19.7667 10.6371)" fill="white"/>
<path d="M4.40848 15.9128C3.30844 18.6864 6.34083 20.6922 7.71979 21.0839C9.27112 21.6363 11.7391 21.7891 13.4198 21.8713C15.1004 21.9536 19.7062 20.4692 20 19.0001C20.2938 17.531 19.4987 16.2301 18.4057 15.7248C17.5313 15.3205 16.1688 13.6368 15.5969 12.8454C14.3629 11.7172 13.4109 11.4469 11.6363 11.4469C10.2166 11.4469 8.76474 12.5359 8.21629 13.0805C8.03217 13.3351 7.40772 13.9431 6.3829 14.338C5.35808 14.7329 4.63961 15.5524 4.40848 15.9128Z" fill="white"/>
<ellipse cx="9.06903" cy="4.57508" rx="2.6844" ry="3.96064" transform="rotate(-10.8613 9.06903 4.57508)" fill="white"/>
<ellipse rx="2.6844" ry="3.96064" transform="matrix(-0.982086 -0.188433 -0.188433 0.982086 15.4539 4.39552)" fill="white"/>
</svg>
