<svg width="35" height="35" viewBox="0 0 35 35" fill="none" xmlns="http://www.w3.org/2000/svg">
<path d="M17.5001 0.0874939C7.88431 0.0874939 0.0875549 7.88425 0.0875549 17.5C0.0875549 27.1157 7.88431 34.9125 17.5001 34.9125C27.1158 34.9125 34.9126 27.1157 34.9126 17.5C34.9126 7.88425 27.1158 0.0874939 17.5001 0.0874939ZM27.4501 9.9481L25.8643 11.4678C25.7243 11.5727 25.6583 11.7438 25.6855 11.9109V23.093C25.6583 23.264 25.7243 23.435 25.8643 23.5361L27.419 25.0558V25.3939H19.6144V25.0713L21.2196 23.5127C21.379 23.3534 21.379 23.3067 21.379 23.0697V14.0214L16.9093 25.355H16.3068L11.1064 14.0214V21.6199C11.0598 21.9386 11.1725 22.2612 11.3979 22.4905L13.489 25.0208V25.3589H7.55005V25.0208L9.64111 22.4905C9.75128 22.3767 9.83327 22.2387 9.88052 22.0875C9.92776 21.9363 9.93895 21.7762 9.91318 21.6199V12.8359C9.94039 12.5911 9.8471 12.354 9.66054 12.1868L7.80269 9.9481V9.60995H13.5745L18.0286 19.385L21.9503 9.61773H27.4501V9.9481Z" fill="#3D1033"/>
</svg>
