<svg width="35" height="35" viewBox="0 0 35 35" fill="none" xmlns="http://www.w3.org/2000/svg">
<path fill-rule="evenodd" clip-rule="evenodd" d="M34.9999 17.5C34.9999 27.1644 27.1643 35 17.4999 35C7.8355 35 -0.00012207 27.1644 -0.00012207 17.5C-0.00012207 7.83563 7.8355 0 17.4999 0C27.1643 0 34.9999 7.83563 34.9999 17.5ZM18.127 12.9194C16.4251 13.6267 13.0228 15.0923 7.92155 17.3148C7.09321 17.6444 6.65863 17.9667 6.61925 18.2817C6.55217 18.8154 7.22009 19.0254 8.12717 19.3098C8.25113 19.3492 8.37946 19.3885 8.51071 19.4323C9.40467 19.7225 10.6063 20.0623 11.2305 20.0754C11.7978 20.0871 12.4307 19.8538 13.1293 19.3754C17.8951 16.1569 20.3553 14.5308 20.5099 14.4958C20.6193 14.471 20.7709 14.439 20.873 14.5308C20.9751 14.6213 20.9649 14.7933 20.9547 14.84C20.8876 15.1215 18.2713 17.5554 16.9151 18.8154C16.4922 19.2077 16.1932 19.4862 16.132 19.5504C15.9949 19.6919 15.8549 19.8275 15.7207 19.9573C14.8895 20.7565 14.2682 21.3573 15.7557 22.3373C16.4703 22.8083 17.042 23.1977 17.6122 23.5856C18.2349 24.01 18.8561 24.4329 19.6611 24.9608C19.8653 25.095 20.0607 25.2335 20.2518 25.3692C20.9765 25.8869 21.6284 26.3506 22.4334 26.2777C22.9001 26.234 23.3843 25.795 23.6293 24.484C24.2082 21.3835 25.3486 14.6694 25.6126 11.9015C25.6286 11.6716 25.6189 11.4408 25.5834 11.2131C25.5622 11.0293 25.4727 10.8601 25.3326 10.7392C25.124 10.5685 24.8003 10.5321 24.6545 10.535C23.9968 10.5467 22.9876 10.8981 18.127 12.9194Z" fill="#3D1033"/>
</svg>
