<svg width="35" height="35" viewBox="0 0 35 35" fill="none" xmlns="http://www.w3.org/2000/svg">
<path d="M17.4992 35C15.1294 35 12.8622 34.5386 10.6974 33.6157C8.53273 32.6929 6.66994 31.451 5.10907 29.8901C3.5482 28.3293 2.30634 26.4665 1.38348 24.3018C0.460632 22.137 -0.000793457 19.8698 -0.000793457 17.5C-0.000793457 15.1302 0.460632 12.863 1.38348 10.6982C2.30634 8.53353 3.5482 6.67074 5.10907 5.10986C6.66994 3.54899 8.53273 2.30713 10.6974 1.38428C12.8622 0.461426 15.1294 0 17.4992 0C19.869 0 22.1363 0.461426 24.301 1.38428C26.4657 2.30713 28.3285 3.54899 29.8893 5.10986C31.4502 6.67074 32.6921 8.53353 33.6149 10.6982C34.5378 12.863 34.9992 15.1302 34.9992 17.5C34.9992 19.8698 34.5378 22.137 33.6149 24.3018C32.6921 26.4665 31.4502 28.3293 29.8893 29.8901C28.3285 31.451 26.4657 32.6929 24.301 33.6157C22.1363 34.5386 19.869 35 17.4992 35ZM27.7873 8.75C27.6506 8.81836 27.4455 8.94368 27.1721 9.12598L26.5056 9.57031L25.8732 9.91211L25.1555 10.1514C24.3124 9.21712 23.2756 8.75 22.0451 8.75C19.3791 8.75 18.0461 9.86654 18.0461 12.0996V14.1162C14.3775 13.9339 11.5633 12.5895 9.6037 10.083C9.03404 10.6755 8.74921 11.3249 8.74921 12.0312C8.74921 13.5352 9.30748 14.6745 10.424 15.4492C10.2873 15.4492 10.0936 15.4606 9.84296 15.4834C9.59231 15.5062 9.39292 15.5062 9.24481 15.4834C9.0967 15.4606 8.9315 15.4036 8.74921 15.3125C8.74921 16.3607 9.02834 17.2323 9.58661 17.9272C10.1449 18.6222 10.9139 19.0723 11.8937 19.2773C11.6659 19.5508 11.3469 19.6875 10.9367 19.6875C10.5721 19.6875 10.2531 19.585 9.97968 19.3799C9.97968 20.2686 10.4069 20.9578 11.2614 21.4478C12.1159 21.9377 13.0786 22.194 14.1496 22.2168C13.7394 22.832 13.1413 23.2935 12.3552 23.6011C11.569 23.9087 10.7316 24.0625 9.84296 24.0625C9.52395 24.0625 9.08531 23.9827 8.52704 23.8232C7.96877 23.6637 7.67824 23.584 7.65546 23.584C8.02004 24.3132 8.7663 24.9398 9.89423 25.4639C11.0222 25.988 12.452 26.25 14.1838 26.25C15.7105 26.25 17.1346 25.9823 18.4562 25.4468C19.7779 24.9113 20.9058 24.1992 21.84 23.3105C22.7743 22.4219 23.5775 21.4079 24.2497 20.2686C24.9219 19.1292 25.4232 17.95 25.7536 16.731C26.084 15.5119 26.2492 14.3099 26.2492 13.125C26.2492 13.0794 26.3859 12.9826 26.6594 12.8345C26.9328 12.6864 27.2518 12.487 27.6164 12.2363C27.981 11.9857 28.2544 11.7236 28.4367 11.4502C27.2062 11.4502 26.3859 11.473 25.9758 11.5186C26.7733 11.04 27.3771 10.1172 27.7873 8.75Z" fill="#3D1033"/>
</svg>
